<!-- EduProof Full Logo (Light Mode) -->
<svg width="180" height="40" viewBox="0 0 180 40" xmlns="http://www.w3.org/2000/svg" role="img" aria-label="EduProof">
  <defs>
    <linearGradient id="shield-light" x1="0" y1="0" x2="0" y2="1">
      <stop offset="0" stop-color="#21A0FF"/>
      <stop offset="1" stop-color="#0F4FD6"/>
    </linearGradient>
  </defs>
  
  <!-- Shield Icon -->
  <g transform="translate(0,2) scale(0.16)">
    <path d="M110 0c32 18 64 18 96 0 3 70-17 118-96 160-79-42-99-90-96-160 32 18 64 18 96 0z" fill="url(#shield-light)"/>
    <path d="M66 55h88v52c0 3-3 5-6 4-22-7-39-7-56 0-3 1-6-1-6-4V55z" fill="#fff"/>
    <path d="M66 55c20-8 40-8 62 0v52c-22-7-42-7-62 0V55z" fill="#EAF1FF"/>
    <path d="M90 95l19 19 47-47" fill="none" stroke="#2EBD59" stroke-width="12" stroke-linecap="round" stroke-linejoin="round"/>
  </g>
  
  <!-- Wordmark -->
  <g font-family="Inter, ui-sans-serif, system-ui" font-weight="700">
    <text x="40" y="28" font-size="24" fill="#0B1324">Edu</text>
    <text x="86" y="28" font-size="24" fill="#1976F3">Proof</text>
  </g>
</svg>
